<svg id="svg" version="1.1" xmlns="http://www.w3.org/2000/svg" xmlns:xlink="http://www.w3.org/1999/xlink" width="400" height="400" viewBox="0, 0, 400,400"><g id="svgg"><path id="path0" d="M83.232 13.100 C 82.991 13.514,82.819 13.590,82.812 13.286 C 82.795 12.552,78.754 13.098,78.100 13.922 C 77.799 14.301,77.600 14.363,77.600 14.076 C 77.600 13.371,76.414 13.498,76.132 14.234 C 75.970 14.655,75.797 14.718,75.614 14.422 C 75.295 13.906,69.600 15.117,69.600 15.701 C 69.600 15.891,69.448 15.953,69.262 15.839 C 68.758 15.527,66.000 16.375,66.000 16.842 C 66.000 17.065,65.841 17.149,65.646 17.028 C 64.998 16.628,62.656 17.659,63.261 18.079 C 63.629 18.334,63.506 18.369,62.871 18.190 C 62.221 18.007,61.760 18.149,61.341 18.664 C 61.011 19.069,60.855 19.175,60.994 18.900 C 61.374 18.149,61.152 18.230,56.630 20.479 C 54.331 21.622,52.557 22.730,52.687 22.941 C 52.817 23.151,52.748 23.215,52.532 23.082 C 51.608 22.510,42.787 28.669,43.653 29.282 C 44.054 29.566,43.962 29.617,43.309 29.474 C 41.902 29.167,30.701 39.637,31.100 40.887 C 31.155 41.059,31.028 41.155,30.818 41.100 C 30.163 40.928,25.989 46.945,26.526 47.286 C 26.842 47.487,26.764 47.590,26.294 47.594 C 25.346 47.602,23.836 50.048,24.513 50.478 C 24.991 50.782,24.903 50.850,23.900 50.950 C 23.257 51.014,17.913 61.596,18.176 62.282 C 18.285 62.567,18.181 62.800,17.945 62.800 C 17.708 62.800,17.614 63.058,17.735 63.374 C 17.856 63.690,17.802 64.005,17.614 64.074 C 17.427 64.143,17.212 64.560,17.137 65.000 C 17.061 65.440,16.889 65.890,16.754 66.000 C 16.619 66.110,16.375 66.650,16.213 67.200 C 15.926 68.169,15.936 68.175,16.539 67.400 C 17.150 66.613,17.157 66.614,16.933 67.500 C 16.809 67.995,16.458 68.400,16.153 68.400 C 15.849 68.400,15.600 68.655,15.600 68.967 C 15.600 69.279,15.479 69.849,15.332 70.233 C 15.149 70.709,15.213 70.839,15.532 70.642 C 15.789 70.483,16.000 70.543,16.000 70.776 C 16.000 71.009,15.730 71.200,15.400 71.200 C 15.070 71.200,14.800 71.481,14.800 71.824 C 14.800 72.167,14.980 72.336,15.200 72.200 C 15.822 71.816,15.671 72.458,15.022 72.956 C 14.214 73.576,13.671 75.847,14.442 75.383 C 14.917 75.097,14.918 75.148,14.451 75.723 C 14.149 76.095,14.059 76.403,14.251 76.406 C 14.443 76.409,14.330 76.589,14.000 76.806 C 13.509 77.128,13.497 77.263,13.934 77.544 C 14.360 77.820,14.334 77.940,13.803 78.144 C 13.325 78.327,13.172 78.786,13.257 79.778 C 13.323 80.536,13.247 81.287,13.088 81.445 C 12.648 81.885,12.745 82.881,13.200 82.600 C 13.420 82.464,13.600 82.524,13.600 82.734 C 13.600 82.943,13.330 83.218,13.000 83.345 C 12.468 83.549,12.409 96.842,12.477 200.087 C 12.519 264.169,12.618 315.475,12.696 314.100 C 12.820 311.914,13.579 310.425,13.613 312.300 C 13.632 313.372,14.678 314.532,15.381 314.263 C 15.721 314.132,16.000 314.120,16.000 314.236 C 16.000 315.420,18.002 323.537,19.191 327.177 C 24.957 344.818,33.726 357.192,47.600 367.264 C 53.532 371.571,62.782 376.127,67.316 376.975 C 67.802 377.066,68.245 377.176,68.300 377.220 C 68.355 377.264,68.580 377.345,68.800 377.400 C 69.020 377.455,69.245 377.538,69.300 377.583 C 69.632 377.860,77.868 378.747,84.200 379.188 C 91.981 379.730,284.314 379.765,285.735 379.225 C 286.854 378.799,287.809 376.486,287.452 375.063 C 287.035 373.404,276.052 363.028,273.800 362.166 C 271.859 361.422,269.246 361.393,184.800 361.177 C 104.530 360.971,97.540 360.901,94.433 360.264 C 64.153 354.060,43.479 332.209,39.116 301.800 C 38.205 295.445,38.380 102.813,39.303 97.000 C 44.131 66.578,66.444 44.116,96.400 39.521 C 101.433 38.750,298.618 38.755,303.600 39.527 C 333.210 44.116,355.370 66.073,360.674 96.077 C 361.544 100.995,362.005 280.046,361.192 297.043 C 360.587 309.700,360.115 308.447,368.652 316.842 C 379.871 327.875,380.991 327.936,382.617 317.600 C 383.976 308.955,384.695 94.538,383.402 83.481 C 379.428 49.512,352.796 21.667,319.300 16.460 C 316.940 16.093,316.347 15.731,317.212 15.184 C 317.587 14.947,317.624 14.810,317.314 14.806 C 316.498 14.796,315.817 13.162,316.459 12.755 C 316.760 12.564,265.338 12.410,200.320 12.406 C 89.614 12.400,83.619 12.436,83.232 13.100 M37.200 34.525 C 37.200 34.594,36.615 35.179,35.900 35.825 L 34.600 37.000 35.775 35.700 C 36.870 34.488,37.200 34.216,37.200 34.525 M131.800 110.772 C 112.101 114.018,98.384 142.854,104.577 168.000 C 112.083 198.475,148.239 242.876,183.800 265.290 C 202.534 277.097,234.206 288.477,250.000 289.075 C 267.418 289.735,287.331 279.456,292.862 266.952 C 296.246 259.304,297.867 246.243,295.796 243.327 C 294.000 240.798,256.305 222.980,251.760 222.511 C 247.438 222.065,245.797 223.378,238.901 232.800 C 227.155 248.849,225.535 249.210,206.607 239.990 C 187.919 230.887,169.804 214.513,156.621 194.809 C 149.308 183.878,149.393 182.831,158.418 172.800 C 165.898 164.486,167.818 161.202,167.303 157.600 C 167.109 156.247,152.054 119.647,150.191 116.000 C 149.104 113.872,147.068 111.825,145.418 111.203 C 143.916 110.637,134.441 110.337,131.800 110.772 " stroke="none" fill="#f5f5f5" fill-rule="evenodd"></path><path id="path1" d="M322.129 14.113 C 323.630 14.609,325.250 15.387,325.729 15.841 C 326.208 16.295,328.940 17.528,331.800 18.582 C 342.618 22.566,352.288 28.170,358.800 34.228 C 359.790 35.150,361.079 36.330,361.663 36.852 C 373.040 46.997,381.778 64.583,384.396 82.600 C 385.370 89.302,384.736 315.742,383.729 320.800 C 377.193 353.643,352.773 377.361,319.200 383.475 C 314.338 384.361,88.593 384.847,82.400 383.985 C 65.148 381.585,50.265 374.260,38.163 362.216 C 28.753 352.850,24.343 345.825,18.817 331.400 C 18.094 329.511,17.600 327.684,17.600 326.895 C 17.600 326.429,17.420 325.936,17.200 325.800 C 16.980 325.664,16.794 325.158,16.786 324.676 C 16.768 323.584,15.774 321.731,15.350 322.000 C 15.177 322.110,14.807 321.411,14.528 320.447 C 13.848 318.101,13.075 316.400,12.688 316.400 C 12.514 316.400,12.540 316.715,12.746 317.100 C 12.953 317.485,13.144 317.933,13.171 318.096 C 13.199 318.258,13.291 318.618,13.375 318.896 C 13.810 320.322,13.887 321.177,13.563 320.977 C 13.363 320.854,13.200 320.943,13.200 321.176 C 13.200 321.409,13.352 321.600,13.537 321.600 C 13.722 321.600,14.081 322.294,14.335 323.142 C 14.590 323.991,15.274 325.386,15.856 326.242 C 16.438 327.099,17.325 328.970,17.828 330.400 C 28.327 360.267,51.205 379.662,81.600 384.463 C 86.652 385.261,312.263 385.259,317.000 384.461 C 328.194 382.575,334.101 380.762,342.209 376.723 C 363.924 365.904,379.514 345.159,384.234 320.800 C 385.664 313.416,386.076 88.375,384.674 80.200 C 380.230 54.291,364.561 33.421,340.600 21.497 C 338.620 20.512,336.550 19.569,336.000 19.402 C 335.450 19.234,333.020 18.155,330.600 17.003 C 325.458 14.556,323.531 13.768,323.058 13.919 C 322.870 13.979,322.510 13.880,322.258 13.699 C 322.006 13.518,321.260 13.334,320.600 13.290 C 319.869 13.242,320.467 13.564,322.129 14.113 M99.600 41.217 C 66.222 44.305,41.996 70.715,40.357 105.800 C 39.858 116.491,39.860 288.851,40.359 296.400 C 42.365 326.729,62.027 350.497,90.800 357.376 C 98.403 359.193,98.393 359.193,184.463 359.197 C 257.994 359.200,267.251 359.269,271.663 359.848 C 277.259 360.583,297.642 360.417,303.200 359.592 C 329.400 355.702,350.788 337.069,357.982 311.867 C 358.505 310.037,358.960 306.268,359.359 300.467 C 360.648 281.743,360.406 104.466,359.080 96.800 C 354.148 68.266,334.067 47.543,305.888 41.908 L 301.400 41.011 202.200 40.956 C 147.640 40.927,101.470 41.044,99.600 41.217 M146.104 109.829 C 150.070 111.180,150.023 111.094,160.835 137.200 C 171.215 162.261,171.276 160.652,159.435 173.762 C 150.868 183.248,150.845 183.854,158.613 195.281 C 172.499 215.708,189.796 230.689,210.642 240.343 C 225.752 247.342,227.062 246.882,238.988 230.392 C 248.133 217.747,247.904 217.730,280.528 233.436 C 298.566 242.119,298.195 241.800,298.171 248.600 C 298.109 265.880,290.188 277.966,273.930 285.584 C 256.567 293.721,241.711 292.378,209.800 279.789 C 173.330 265.401,144.923 240.562,116.946 198.600 C 96.522 167.967,96.546 137.601,117.010 116.671 C 121.660 111.915,125.439 110.110,133.000 109.034 C 135.536 108.673,144.266 109.203,146.104 109.829 " stroke="none" fill="#34a650" fill-rule="evenodd"></path><path id="path2" d="M318.967 13.146 C 319.085 13.337,319.632 13.406,320.184 13.301 C 320.735 13.196,321.505 13.254,321.893 13.432 C 322.282 13.609,322.780 13.769,323.000 13.786 C 323.694 13.841,326.056 14.841,330.600 17.003 C 333.020 18.155,335.450 19.234,336.000 19.402 C 336.550 19.569,338.620 20.512,340.600 21.497 C 364.561 33.421,380.230 54.291,384.674 80.200 C 386.076 88.375,385.664 313.416,384.234 320.800 C 379.514 345.159,363.924 365.904,342.209 376.723 C 334.101 380.762,328.194 382.575,317.000 384.461 C 312.263 385.259,86.652 385.261,81.600 384.463 C 51.205 379.662,28.327 360.267,17.828 330.400 C 17.325 328.970,16.438 327.099,15.856 326.242 C 15.274 325.386,14.590 323.991,14.335 323.142 C 14.081 322.294,13.722 321.600,13.537 321.600 C 13.352 321.600,13.200 321.409,13.200 321.176 C 13.200 320.943,13.347 320.844,13.528 320.955 C 13.708 321.067,13.777 320.625,13.682 319.974 C 13.586 319.323,13.349 318.692,13.154 318.571 C 12.959 318.451,12.800 317.973,12.800 317.510 C 12.800 317.046,12.718 316.749,12.617 316.850 C 11.751 317.716,14.332 334.962,16.351 341.800 C 24.745 370.239,46.614 391.696,74.622 398.976 L 78.564 400.000 207.528 400.000 L 336.492 400.000 340.307 398.961 C 369.595 390.982,391.158 369.234,398.999 339.767 L 400.000 336.004 400.000 207.756 L 400.000 79.508 398.971 75.654 C 391.185 46.498,370.031 24.683,341.572 16.460 C 333.247 14.055,318.162 11.843,318.967 13.146 " stroke="none" fill="#040404" fill-rule="evenodd"></path><path id="path3" d="M316.000 13.200 C 316.000 13.420,316.349 13.949,316.775 14.375 C 317.294 14.894,317.393 15.206,317.075 15.320 C 316.205 15.632,317.177 16.130,319.300 16.460 C 352.796 21.667,379.428 49.512,383.402 83.481 C 384.695 94.538,383.976 308.955,382.617 317.600 C 380.991 327.936,379.871 327.875,368.652 316.842 C 360.115 308.447,360.587 309.700,361.192 297.043 C 362.005 280.046,361.544 100.995,360.674 96.077 C 355.370 66.073,333.210 44.116,303.600 39.527 C 298.618 38.755,101.433 38.750,96.400 39.521 C 66.444 44.116,44.131 66.578,39.303 97.000 C 38.380 102.813,38.205 295.445,39.116 301.800 C 43.479 332.209,64.153 354.060,94.433 360.264 C 97.540 360.901,104.530 360.971,184.800 361.177 C 269.246 361.393,271.859 361.422,273.800 362.166 C 276.052 363.028,287.035 373.404,287.452 375.063 C 287.809 376.486,286.854 378.799,285.735 379.225 C 284.314 379.765,91.981 379.730,84.200 379.188 C 77.868 378.747,69.632 377.860,69.300 377.583 C 69.245 377.538,69.020 377.455,68.800 377.400 C 68.580 377.345,68.355 377.264,68.300 377.220 C 68.245 377.176,67.802 377.066,67.316 376.975 C 62.782 376.127,53.532 371.571,47.600 367.264 C 33.726 357.192,24.957 344.818,19.191 327.177 C 18.002 323.537,16.000 315.420,16.000 314.236 C 16.000 314.120,15.721 314.132,15.381 314.263 C 14.678 314.532,13.632 313.372,13.613 312.300 C 13.606 311.915,13.420 311.600,13.200 311.600 C 12.634 311.600,12.701 314.541,13.280 315.120 C 13.653 315.493,13.653 315.600,13.280 315.600 C 13.016 315.600,12.800 315.791,12.800 316.024 C 12.800 316.257,12.966 316.345,13.168 316.220 C 13.370 316.095,13.877 316.426,14.295 316.957 C 14.976 317.824,15.097 317.854,15.480 317.261 C 15.825 316.726,15.962 316.983,16.198 318.600 C 20.512 348.241,43.833 373.915,73.251 381.408 C 83.293 383.966,75.214 383.800,189.674 383.800 L 293.547 383.800 294.775 382.624 L 296.003 381.447 294.996 380.396 C 293.517 378.852,293.769 378.801,302.967 378.790 C 311.563 378.779,316.209 378.326,326.800 376.464 C 329.330 376.019,332.615 375.598,334.099 375.528 C 335.584 375.457,336.799 375.246,336.799 375.057 C 336.800 374.869,337.070 374.818,337.400 374.945 C 337.730 375.071,338.000 374.990,338.000 374.764 C 338.000 374.538,338.163 374.454,338.362 374.577 C 338.905 374.912,347.768 370.370,351.494 367.848 C 364.080 359.326,372.851 348.111,378.822 332.904 C 379.904 330.149,380.979 327.666,381.211 327.386 C 382.185 326.214,383.373 320.124,383.991 313.144 C 384.578 306.507,384.547 86.581,383.958 82.707 C 378.962 49.844,356.507 24.807,325.200 17.189 C 323.990 16.895,322.829 16.507,322.620 16.327 C 322.411 16.147,321.511 15.973,320.620 15.940 C 319.420 15.896,319.285 15.837,320.100 15.713 C 321.703 15.471,321.458 15.079,319.200 14.277 C 318.100 13.887,317.200 13.395,317.200 13.184 C 317.200 12.973,316.930 12.800,316.600 12.800 C 316.270 12.800,316.000 12.980,316.000 13.200 M306.948 40.724 C 334.416 46.559,354.478 67.076,359.824 94.800 C 361.209 101.983,361.409 290.096,360.049 306.600 C 358.826 321.448,346.939 339.845,332.110 349.843 C 318.376 359.102,307.274 361.855,285.400 361.425 C 279.020 361.300,234.650 361.055,186.800 360.882 C 106.445 360.591,99.510 360.513,96.000 359.866 C 66.183 354.368,46.188 334.664,40.118 304.800 C 38.780 298.213,38.772 102.454,40.110 95.400 C 45.693 65.973,67.274 44.750,96.210 40.233 C 99.227 39.762,115.990 39.682,201.200 39.736 L 302.600 39.800 306.948 40.724 M128.944 110.742 C 117.576 113.615,106.652 127.871,103.639 143.764 C 99.403 166.110,107.507 187.241,132.339 218.600 C 161.035 254.838,191.640 275.537,233.400 286.949 C 254.340 292.671,271.116 289.454,285.956 276.871 C 295.280 268.965,301.117 247.155,295.315 241.904 C 294.388 241.065,274.161 231.147,262.800 225.961 L 254.600 222.218 251.172 222.209 C 246.500 222.197,245.595 222.840,240.358 229.888 C 227.706 246.919,226.173 247.748,215.453 243.358 C 192.649 234.017,172.865 217.633,158.039 195.806 C 150.493 184.698,150.320 182.951,156.107 176.369 C 170.838 159.616,170.455 162.475,161.003 139.800 C 149.701 112.686,149.896 113.078,146.831 111.277 C 144.387 109.839,133.770 109.522,128.944 110.742 M145.418 111.203 C 147.068 111.825,149.104 113.872,150.191 116.000 C 152.054 119.647,167.109 156.247,167.303 157.600 C 167.818 161.202,165.898 164.486,158.418 172.800 C 149.393 182.831,149.308 183.878,156.621 194.809 C 169.804 214.513,187.919 230.887,206.607 239.990 C 225.535 249.210,227.155 248.849,238.901 232.800 C 248.474 219.720,248.046 219.773,268.400 229.155 C 281.474 235.181,294.968 242.161,295.796 243.327 C 297.867 246.243,296.246 259.304,292.862 266.952 C 287.331 279.456,267.418 289.735,250.000 289.075 C 234.206 288.477,202.534 277.097,183.800 265.290 C 148.239 242.876,112.083 198.475,104.577 168.000 C 98.384 142.854,112.101 114.018,131.800 110.772 C 134.441 110.337,143.916 110.637,145.418 111.203 " stroke="none" fill="#a4a4a4" fill-rule="evenodd"></path><path id="path4" d="M317.200 13.243 C 317.200 13.486,317.479 13.578,317.821 13.447 C 318.162 13.316,318.337 13.378,318.209 13.585 C 318.081 13.792,318.702 14.178,319.588 14.444 C 321.465 15.006,321.655 15.478,320.100 15.713 C 319.285 15.837,319.420 15.896,320.620 15.940 C 321.511 15.973,322.411 16.147,322.620 16.327 C 322.829 16.507,323.990 16.895,325.200 17.189 C 356.507 24.807,378.962 49.844,383.958 82.707 C 384.547 86.581,384.578 306.507,383.991 313.144 C 383.373 320.124,382.185 326.214,381.211 327.386 C 380.979 327.666,379.904 330.149,378.822 332.904 C 372.851 348.111,364.080 359.326,351.494 367.848 C 347.768 370.370,338.905 374.912,338.362 374.577 C 338.163 374.454,338.000 374.538,338.000 374.764 C 338.000 374.990,337.730 375.071,337.400 374.945 C 337.070 374.818,336.800 374.869,336.799 375.057 C 336.799 375.246,335.584 375.457,334.099 375.528 C 332.615 375.598,329.330 376.019,326.800 376.464 C 316.209 378.326,311.563 378.779,302.967 378.790 C 293.769 378.801,293.517 378.852,294.996 380.396 L 296.003 381.447 294.775 382.624 L 293.547 383.800 189.674 383.800 C 75.214 383.800,83.293 383.966,73.251 381.408 C 43.833 373.915,20.512 348.241,16.198 318.600 C 15.966 317.007,15.822 316.732,15.489 317.247 C 15.118 317.821,14.971 317.778,14.195 316.877 L 13.320 315.859 13.119 316.910 C 13.005 317.506,13.093 317.926,13.323 317.880 C 13.546 317.836,14.014 318.758,14.364 319.930 C 14.714 321.101,15.150 322.001,15.332 321.930 C 15.789 321.752,16.768 323.604,16.786 324.676 C 16.794 325.158,16.980 325.664,17.200 325.800 C 17.420 325.936,17.600 326.429,17.600 326.895 C 17.600 327.684,18.094 329.511,18.817 331.400 C 24.343 345.825,28.753 352.850,38.163 362.216 C 50.265 374.260,65.148 381.585,82.400 383.985 C 88.593 384.847,314.338 384.361,319.200 383.475 C 352.773 377.361,377.193 353.643,383.729 320.800 C 384.736 315.742,385.370 89.302,384.396 82.600 C 381.778 64.583,373.040 46.997,361.663 36.852 C 361.079 36.330,359.790 35.150,358.800 34.228 C 352.285 28.167,342.603 22.557,331.800 18.585 C 328.940 17.533,326.191 16.272,325.691 15.781 C 325.190 15.291,323.968 14.685,322.973 14.435 C 321.979 14.185,321.254 13.837,321.362 13.662 C 321.469 13.488,321.049 13.419,320.426 13.511 C 319.804 13.602,319.173 13.480,319.024 13.238 C 318.670 12.666,317.200 12.670,317.200 13.243 M35.775 35.700 L 34.600 37.000 35.900 35.825 C 36.615 35.179,37.200 34.594,37.200 34.525 C 37.200 34.216,36.870 34.488,35.775 35.700 M96.210 40.233 C 67.274 44.750,45.693 65.973,40.110 95.400 C 38.772 102.454,38.780 298.213,40.118 304.800 C 46.188 334.664,66.183 354.368,96.000 359.866 C 99.510 360.513,106.445 360.591,186.800 360.882 C 234.650 361.055,279.020 361.300,285.400 361.425 C 307.274 361.855,318.376 359.102,332.110 349.843 C 346.939 339.845,358.826 321.448,360.049 306.600 C 361.409 290.096,361.209 101.983,359.824 94.800 C 354.478 67.076,334.416 46.559,306.948 40.724 L 302.600 39.800 201.200 39.736 C 115.990 39.682,99.227 39.762,96.210 40.233 M305.888 41.908 C 334.067 47.543,354.148 68.266,359.080 96.800 C 360.406 104.466,360.648 281.743,359.359 300.467 C 357.269 330.834,334.346 354.967,303.200 359.592 C 297.642 360.417,277.259 360.583,271.663 359.848 C 267.251 359.269,257.994 359.200,184.463 359.197 C 98.393 359.193,98.403 359.193,90.800 357.376 C 62.027 350.497,42.365 326.729,40.359 296.400 C 39.860 288.851,39.858 116.491,40.357 105.800 C 41.868 73.444,62.108 48.707,92.265 42.360 C 99.082 40.925,100.931 40.901,202.200 40.956 L 301.400 41.011 305.888 41.908 M133.000 109.034 C 125.439 110.110,121.660 111.915,117.010 116.671 C 96.546 137.601,96.522 167.967,116.946 198.600 C 144.923 240.562,173.330 265.401,209.800 279.789 C 241.711 292.378,256.567 293.721,273.930 285.584 C 290.188 277.966,298.109 265.880,298.171 248.600 C 298.195 241.800,298.566 242.119,280.528 233.436 C 247.904 217.730,248.133 217.747,238.988 230.392 C 227.062 246.882,225.752 247.342,210.642 240.343 C 189.796 230.689,172.499 215.708,158.613 195.281 C 150.845 183.854,150.868 183.248,159.435 173.762 C 171.276 160.652,171.215 162.261,160.835 137.200 C 150.023 111.094,150.070 111.180,146.104 109.829 C 144.266 109.203,135.536 108.673,133.000 109.034 M146.831 111.277 C 149.896 113.078,149.701 112.686,161.003 139.800 C 170.455 162.475,170.838 159.616,156.107 176.369 C 150.320 182.951,150.493 184.698,158.039 195.806 C 172.865 217.633,192.649 234.017,215.453 243.358 C 226.173 247.748,227.706 246.919,240.358 229.888 C 245.595 222.840,246.500 222.197,251.172 222.209 L 254.600 222.218 262.800 225.961 C 274.161 231.147,294.388 241.065,295.315 241.904 C 299.808 245.970,296.564 264.430,289.881 272.821 C 279.746 285.548,258.779 292.385,241.019 288.754 C 198.800 280.123,162.505 256.695,132.339 218.600 C 107.507 187.241,99.403 166.110,103.639 143.764 C 106.652 127.871,117.576 113.615,128.944 110.742 C 133.770 109.522,144.387 109.839,146.831 111.277 " stroke="none" fill="#96a498" fill-rule="evenodd"></path></g></svg>