<?xml version="1.0" ?><!DOCTYPE svg  PUBLIC '-//W3C//DTD SVG 1.1//EN'  'http://www.w3.org/Graphics/SVG/1.1/DTD/svg11.dtd'><svg enable-background="new 0 0 256 256" height="256px" id="Layer_1" version="1.1" viewBox="0 0 256 256" width="256px" xml:space="preserve" xmlns="http://www.w3.org/2000/svg" xmlns:xlink="http://www.w3.org/1999/xlink"><g><circle cx="128.063" cy="127.926" r="123.39"/><linearGradient gradientUnits="userSpaceOnUse" id="SVGID_1_" x1="68.5605" x2="187.5645" y1="230.9863" y2="24.8655"><stop offset="0" style="stop-color:#2A953C"/><stop offset="1" style="stop-color:#A3E99A"/></linearGradient><path d="M128.063,246.953c-65.632,0-119.027-53.396-119.027-119.027   c0-65.632,53.395-119.027,119.027-119.027c65.631,0,119.027,53.395,119.027,119.027   C247.09,193.558,193.694,246.953,128.063,246.953z M128.063,14.527c-62.528,0-113.399,50.871-113.399,113.399   c0,62.528,50.871,113.399,113.399,113.399c62.528,0,113.399-50.871,113.399-113.399C241.462,65.398,190.591,14.527,128.063,14.527z   " fill="url(#SVGID_1_)"/><linearGradient gradientUnits="userSpaceOnUse" id="SVGID_2_" x1="88.2822" x2="160.5023" y1="199.5967" y2="74.5078"><stop offset="0" style="stop-color:#2A953C"/><stop offset="1" style="stop-color:#A3E99A"/></linearGradient><path d="M129.661,189.62c-13.28,0-25.878-4.133-36.514-11.961l-25.613,9.116   c-0.782,0.281-1.655,0.063-2.218-0.547c-0.562-0.612-0.705-1.501-0.363-2.258l11.352-25.051c-5.459-9.379-8.339-20.07-8.339-30.994   c0-34.018,27.675-61.694,61.695-61.694c34.019,0,61.695,27.676,61.695,61.694C191.356,161.943,163.68,189.62,129.661,189.62z    M94.815,173.734c10.081,7.684,22.129,11.744,34.846,11.744c31.735,0,57.554-25.817,57.554-57.552s-25.818-57.553-57.554-57.553   c-31.736,0-57.555,25.818-57.555,57.553c0,10.501,2.852,20.771,8.25,29.708c0.175,0.262,0.293,0.564,0.335,0.891   c0.053,0.412-0.021,0.814-0.191,1.168l-9.763,21.549l22.069-7.855C93.516,173.135,94.271,173.292,94.815,173.734z" fill="url(#SVGID_2_)"/><linearGradient gradientUnits="userSpaceOnUse" id="SVGID_3_" x1="119.3774" x2="140.2429" y1="148.1338" y2="111.9937"><stop offset="0" style="stop-color:#2A953C"/><stop offset="1" style="stop-color:#A3E99A"/></linearGradient><path d="M146.581,161.464c-6.686,0-16.363-6.424-29.582-19.643c-23.938-23.938-20.043-31.201-18.38-34.301   l0.042-0.079c1.446-2.707,4.852-6.089,6.681-7.906l0.448-0.445c0.012-0.014,0.261-0.267,1.796-1.804   c1.081-1.081,2.175-1.605,3.345-1.605c1.623,0,2.859,1.05,3.648,1.84l10.188,10.187c3.062,3.063,2.069,5.34,0.699,6.709   c-0.446,0.447-0.733,0.717-0.962,0.934c-0.368,0.347-0.537,0.506-1.083,1.151c-0.031,0.039-0.067,0.076-0.103,0.111   c-1.543,1.545-2.504,4.292-2.209,5.075c1.165,3.103,3.889,5.826,7.043,8.979c3.152,3.152,5.875,5.878,8.978,7.041   c0.029,0.011,0.138,0.046,0.362,0.046c1.311,0,3.513-1.052,4.715-2.254c0.036-0.037,0.073-0.069,0.11-0.103   c0.646-0.546,0.806-0.714,1.154-1.082c0.216-0.232,0.484-0.518,0.933-0.965c0.862-0.861,1.823-1.299,2.857-1.299   c1.657,0,2.991,1.14,3.851,1.998l10.188,10.188c0.706,0.706,1.662,1.809,1.817,3.245c0.14,1.298-0.395,2.559-1.585,3.75   c-1.665,1.667-1.819,1.814-1.819,1.814l-0.431,0.433c-1.815,1.829-5.197,5.232-7.904,6.678l-0.079,0.041   C150.42,160.674,148.946,161.464,146.581,161.464z M110.932,99.307c-0.083,0-0.351,0.114-0.782,0.544   c-1.522,1.524-1.75,1.756-1.773,1.78l-0.48,0.479c-1.573,1.562-4.847,4.812-6.037,7.04l-0.045,0.084   c-1.06,1.977-4.284,7.991,17.748,30.024c15.358,15.357,23.171,18.579,27.019,18.579c1.453,0,2.314-0.461,3.005-0.831l0.084-0.044   c2.226-1.189,5.478-4.463,7.04-6.035l0.461-0.464c0.039-0.038,0.269-0.263,1.799-1.793c0.416-0.415,0.554-0.703,0.543-0.795   c-0.007-0.055-0.072-0.366-0.775-1.071l-10.188-10.188c-0.874-0.874-1.253-0.935-1.287-0.938c0.002,0.004-0.104,0.05-0.295,0.24   c-0.41,0.408-0.658,0.672-0.856,0.883c-0.416,0.442-0.671,0.706-1.397,1.321c-1.623,1.591-4.678,3.261-7.221,3.261l0,0   c-0.598,0-1.149-0.095-1.637-0.277c-3.837-1.44-6.817-4.422-10.267-7.874c-3.452-3.45-6.434-6.431-7.874-10.266   c-1.038-2.755,1.051-6.884,2.983-8.857c0.615-0.724,0.88-0.98,1.322-1.396c0.209-0.199,0.474-0.446,0.882-0.856   c0.2-0.2,0.239-0.306,0.242-0.315l0,0c-0.004,0-0.049-0.377-0.941-1.268l-10.187-10.188   C111.248,99.317,110.944,99.307,110.932,99.307z" fill="url(#SVGID_3_)"/></g></svg>